<svg xmlns="http://www.w3.org/2000/svg" width="255.586" height="122.255" viewBox="0 0 255.586 122.255">
    <g id="g_1" transform="translate(-31.19 -17.679)">
        <path id="p_19"
              d="M60.855,72.186a7.323,7.323,0,0,0-.613-1.328,5.276,5.276,0,0,0-1.509-1.548,5.007,5.007,0,0,0-3.9-.5,11.631,11.631,0,0,0-2.546.864,4.361,4.361,0,0,0-2.383,2.771,5.4,5.4,0,0,0,.314,3.206,12.7,12.7,0,0,0,1.027,2.383,7.337,7.337,0,0,0,2.247,2.36,3.113,3.113,0,0,0,4.259-1.117c.014-.026.022-.057.036-.085a10.24,10.24,0,0,0,1.544-.8,4.356,4.356,0,0,0,1.51-1.595,4.457,4.457,0,0,0,.514-2.278A7.635,7.635,0,0,0,60.855,72.186Z"
              transform="translate(4.553 12.485)" fill="#f0a0b1"/>
        <g id="g_7" transform="translate(31.19 17.679)">
            <g id="g_5">
                <path id="p_20"
                      d="M121.3,49.321c-2.492-6.57-5.1-13.366-6.91-19.031-1.813,5.89-4.079,12.009-6.8,19.031L90.509,93.481c-.566,1.36-1.813,1.811-3.4,1.245a2.124,2.124,0,0,1-1.358-3.058l25.466-65.115a3.486,3.486,0,0,1,6.343,0l29.339,75.9a2.171,2.171,0,0,1-1.473,3.058c-1.586.566-2.832.115-3.4-1.245Z"
                      transform="translate(-17.877 -16.004)" fill="#565656"/>
                <path id="p_21"
                      d="M194.812,63.376V99.46c0,4.418-1.7,6-4.418,6-1.813,0-2.831-.68-4.3-3.058L147.008,37.044a49.054,49.054,0,0,1-3.172-6.458V63.2c0,1.472-1.245,2.039-2.606,2.039-1.245,0-2.491-.568-2.491-2.039V30.7c0-4.418,1.7-6,4.417-6,1.813,0,2.832.68,4.305,3.059l39.081,65.362a48.9,48.9,0,0,1,3.171,6.458v-36.2c0-1.474,1.246-2.039,2.492-2.039C193.565,61.337,194.812,61.9,194.812,63.376Z"
                      transform="translate(-4.843 -15.96)" fill="#565656"/>
                <path id="p_22"
                      d="M229.452,49.321c-2.492-6.57-5.1-13.366-6.91-19.031-1.813,5.89-4.077,12.009-6.8,19.031l-21.3,54.941c-.566,1.36-1.813,1.811-3.4,1.245a2.123,2.123,0,0,1-1.36-3.058l29.679-75.9a3.485,3.485,0,0,1,6.342,0L247.8,83.033a2.171,2.171,0,0,1-1.472,3.058c-1.587.568-2.834.115-3.4-1.245Z"
                      transform="translate(7.587 -16.004)" fill="#565656"/>
                <path id="p_23"
                      d="M84.77,48.027c-1.246,0-2.492.565-2.492,2.038V62.439H36.4V47.567c.152-5.676,1.607-24.043,14-24.662a2.615,2.615,0,0,0-.261-5.223c-17.624.881-18.9,24.644-18.946,30.458l-.006,0v57.227c0,1.473,1.246,2.039,2.491,2.039,1.474,0,2.72-.566,2.72-2.039V67.082H82.278v38.288c0,1.473,1.246,2.039,2.492,2.039,1.473,0,2.719-.566,2.719-2.039V50.065C87.489,48.592,86.243,48.027,84.77,48.027Z"
                      transform="translate(-31.19 -17.679)" fill="#565656"/>
                <circle id="c_4" cx="7.253" cy="7.253" r="7.253" transform="translate(222.826 56.528)" fill="#565656"/>
                <path id="p_24"
                      d="M62.109,70.766a1.866,1.866,0,0,0-2.641.036L55.285,75.1,51.1,70.8a1.867,1.867,0,1,0-2.677,2.6l4.991,5.126V82.34a1.867,1.867,0,0,0,3.735,0V78.532l4.992-5.126A1.868,1.868,0,0,0,62.109,70.766Z"
                      transform="translate(-27.097 -4.803)" fill="#565656"/>
                <circle id="c_5" cx="1.895" cy="1.895" r="1.895" transform="translate(9.621 56.907)" fill="#565656"/>
                <circle id="c_6" cx="1.895" cy="1.895" r="1.895" transform="translate(42.91 56.907)" fill="#565656"/>
            </g>
            <g id="g_6" transform="translate(46.206 106.994)">
                <path id="p_25"
                      d="M77.954,108.012v.366a3.617,3.617,0,0,1-2.734,3.735l2.836,5.55a.618.618,0,0,1-.326.918.671.671,0,0,1-.98-.265l-2.979-5.957a6.252,6.252,0,0,1-.876.061h-3.1v5.652c0,.427-.347.611-.754.611-.388,0-.735-.184-.735-.611v-12.63c0-1.02.346-1.347,1.366-1.347h3.47C76.117,104.094,77.954,105.36,77.954,108.012Zm-5.1,3.1c2.51,0,3.612-.96,3.612-2.775v-.265c0-1.8-1.1-2.673-3.427-2.673H69.793v5.713Z"
                      transform="translate(-68.304 -103.503)" fill="#565656"/>
                <path id="p_26"
                      d="M89.944,110.569v6.815c0,.408-.346.571-.693.571s-.693-.163-.693-.571v-1h-.02a2.732,2.732,0,0,1-1.163,1.143,4.667,4.667,0,0,1-2.225.509c-2.243,0-3.652-1.162-3.652-3.141v-.2c0-1.734,1.123-3.06,3.9-3.06h3.081v-.756c0-1.714-.8-2.53-2.591-2.53a5.242,5.242,0,0,0-2.857.878.593.593,0,0,1-.857-.224.615.615,0,0,1,.163-.879,6.572,6.572,0,0,1,3.591-1.059C88.414,107.061,89.944,108.407,89.944,110.569Zm-7,4.163v.122c0,1.184.815,1.919,2.3,1.919a4.189,4.189,0,0,0,1.98-.408,2.231,2.231,0,0,0,1.265-2.021v-1.53h-3.06C83.619,112.814,82.947,113.63,82.947,114.733Z"
                      transform="translate(-65.072 -102.776)" fill="#565656"/>
                <path id="p_27"
                      d="M95.768,104.232v5.427a3.806,3.806,0,0,1,3.347-1.754c2.815,0,4.263,1.733,4.263,5.06v.857c0,3.388-1.713,5.06-4.386,5.06a3.728,3.728,0,0,1-3.243-1.55h-.041v.876a.619.619,0,0,1-.693.593c-.369,0-.715-.184-.715-.593V104.232c0-.428.367-.613.735-.613C95.421,103.619,95.768,103.8,95.768,104.232Zm-.02,8.039v2.815c0,1.306,1.285,2.51,3.162,2.51,1.856,0,3.019-1.183,3.019-3.877v-.672c0-2.612-.959-3.857-3.04-3.857A3.063,3.063,0,0,0,95.748,112.27Z"
                      transform="translate(-61.936 -103.619)" fill="#565656"/>
                <path id="p_28"
                      d="M108.749,104.232v5.427A3.807,3.807,0,0,1,112.1,107.9c2.815,0,4.264,1.733,4.264,5.06v.857c0,3.388-1.714,5.06-4.387,5.06a3.73,3.73,0,0,1-3.243-1.55h-.041v.876a.619.619,0,0,1-.693.593c-.367,0-.715-.184-.715-.593V104.232c0-.428.367-.613.735-.613C108.4,103.619,108.749,103.8,108.749,104.232Zm-.02,8.039v2.815c0,1.306,1.285,2.51,3.162,2.51,1.856,0,3.019-1.183,3.019-3.877v-.672c0-2.612-.959-3.857-3.039-3.857A3.063,3.063,0,0,0,108.729,112.27Z"
                      transform="translate(-58.756 -103.619)" fill="#565656"/>
                <path id="p_29"
                      d="M122.179,105.122a1.081,1.081,0,1,1-1.082-1.059A1.055,1.055,0,0,1,122.179,105.122Zm-.346,3.429v9.529c0,.427-.347.611-.736.611-.367,0-.733-.184-.733-.611V108.55c0-.428.366-.613.733-.613C121.485,107.938,121.832,108.122,121.832,108.55Z"
                      transform="translate(-55.636 -103.51)" fill="#565656"/>
                <path id="p_30"
                      d="M130.029,105.509v2.306h2.591c.326,0,.489.265.489.591,0,.346-.163.611-.489.611h-2.591v6.245c0,1.571.367,2.041,1.489,2.041a2.6,2.6,0,0,0,1.061-.2.548.548,0,0,1,.735.367.622.622,0,0,1-.326.815,3.84,3.84,0,0,1-1.551.285c-1.958,0-2.876-.837-2.876-3.182v-6.367h-1.428c-.347,0-.51-.265-.51-.611,0-.326.163-.591.51-.591h1.428v-2.306c0-.428.346-.611.715-.611C129.661,104.9,130.029,105.081,130.029,105.509Z"
                      transform="translate(-54.017 -103.306)" fill="#565656"/>
                <path id="p_31"
                      d="M151.63,108.016a.4.4,0,0,1,.122.571.385.385,0,0,1-.55.163,5.539,5.539,0,0,0-2.979-.774c-1.917,0-2.836.815-2.836,1.9v.062c0,1.1.735,1.632,3.04,2.06,2.9.53,3.795,1.2,3.795,3.019v.164c0,1.611-1.489,2.835-3.958,2.835a6.9,6.9,0,0,1-3.755-1.081.415.415,0,0,1-.122-.591.4.4,0,0,1,.613-.123,6.078,6.078,0,0,0,3.284.98c1.938,0,3.06-.878,3.06-2.06v-.061c0-1.327-.468-1.755-3.325-2.286-2.306-.428-3.51-1.2-3.51-2.775v-.162c0-1.47,1.2-2.694,3.8-2.694A6.387,6.387,0,0,1,151.63,108.016Z"
                      transform="translate(-49.683 -102.752)" fill="#565656"/>
                <path id="p_32"
                      d="M157.756,105.12a.816.816,0,1,1-.817-.8A.789.789,0,0,1,157.756,105.12Zm-.347,3.264v9.854c0,.265-.224.367-.469.367-.224,0-.448-.1-.448-.367v-9.854c0-.265.224-.367.448-.367C157.185,108.017,157.409,108.119,157.409,108.384Z"
                      transform="translate(-46.79 -103.446)" fill="#565656"/>
                <path id="p_33"
                      d="M165.307,105.4V107.9h2.815c.205,0,.308.163.308.367,0,.225-.1.388-.308.388h-2.815v6.671c0,1.9.408,2.409,1.754,2.409a2.643,2.643,0,0,0,1.1-.225.368.368,0,0,1,.53.2.389.389,0,0,1-.224.55,3.5,3.5,0,0,1-1.428.265c-1.734,0-2.653-.632-2.653-2.978v-6.9h-1.632c-.2,0-.305-.163-.305-.388,0-.2.1-.367.305-.367h1.632V105.4c0-.265.225-.367.449-.367C165.083,105.029,165.307,105.131,165.307,105.4Z"
                      transform="translate(-45.24 -103.274)" fill="#565656"/>
                <path id="p_34"
                      d="M174.781,105.4V107.9H177.6c.2,0,.306.163.306.367,0,.225-.1.388-.306.388h-2.815v6.671c0,1.9.407,2.409,1.754,2.409a2.647,2.647,0,0,0,1.1-.225.368.368,0,0,1,.53.2.39.39,0,0,1-.224.55,3.5,3.5,0,0,1-1.429.265c-1.733,0-2.652-.632-2.652-2.978v-6.9H172.23c-.2,0-.306-.163-.306-.388,0-.2.1-.367.306-.367h1.632V105.4c0-.265.224-.367.449-.367C174.556,105.029,174.781,105.131,174.781,105.4Z"
                      transform="translate(-42.919 -103.274)" fill="#565656"/>
                <path id="p_35"
                      d="M190.728,111.975v.04c0,.552-.265.837-.9.837h-6.875v.143c0,2.9,1.387,4.2,3.61,4.2a5.552,5.552,0,0,0,3.183-.878.384.384,0,0,1,.591.1.416.416,0,0,1-.122.593,6.65,6.65,0,0,1-3.714,1c-2.714,0-4.468-1.652-4.468-4.916v-1.02c0-3.264,1.754-4.918,4.366-4.918C189.117,107.159,190.728,108.933,190.728,111.975Zm-7.772,0v.1h6.855v-.144c0-2.591-1.327-3.957-3.408-3.957C184.343,107.976,182.956,109.384,182.956,111.975Z"
                      transform="translate(-40.442 -102.752)" fill="#565656"/>
                <path id="p_36"
                      d="M200.209,107.343a.4.4,0,0,1,.224.55.4.4,0,0,1-.51.305,3.908,3.908,0,0,0-1.041-.142c-2.019,0-3.06,1.734-3.06,4.06v5.427c0,.265-.224.367-.469.367-.224,0-.449-.1-.449-.367v-9.854c0-.265.225-.367.449-.367s.449.1.449.367v1.8h.02a3.253,3.253,0,0,1,3.142-2.327A3.879,3.879,0,0,1,200.209,107.343Z"
                      transform="translate(-37.29 -102.752)" fill="#565656"/>
            </g>
        </g>
    </g>
</svg>
